<svg width="512" height="512" viewBox="0 0 512 512" fill="none" xmlns="http://www.w3.org/2000/svg">
<g clip-path="url(#clip0_1905_265)">
<path d="M71.8966 458.988C78.0832 452.695 103.043 418.882 100.697 411.628C100.27 410.348 94.4032 406.935 92.8032 405.442C27.2032 344.642 10.4566 250.348 61.4432 173.975C130.883 69.9749 285.123 69.9749 354.137 174.615C436.59 299.735 335.257 463.255 187.203 446.935C181.017 446.295 159.47 440.428 156.27 440.962C154.35 441.282 148.59 446.402 146.03 447.788C122.99 460.588 97.8166 465.388 71.8966 458.988ZM149.443 217.175C144.963 218.135 142.937 222.935 143.897 227.202C144.75 231.042 154.67 238.402 154.67 239.468C150.297 244.695 140.057 250.348 144.643 258.562C151.47 270.722 162.99 251.948 166.19 251.948C172.483 255.255 176.643 265.922 185.177 261.015C195.31 255.255 182.617 243.842 177.71 239.468C182.297 234.135 192.963 228.055 187.097 219.948C180.59 210.882 170.777 223.255 166.19 227.948C160.963 223.682 157.23 215.468 149.443 217.175ZM269.23 219.308C261.657 211.735 254.083 223.575 248.963 227.948C246.19 228.375 234.563 208.642 227.63 220.482C222.403 229.228 233.497 233.068 236.697 239.575C236.697 242.668 218.03 254.295 230.083 261.122C238.617 265.922 242.777 255.362 249.07 252.055C253.123 252.055 260.803 269.442 269.55 259.628C276.27 252.055 264.643 245.868 260.59 240.428C260.057 237.548 277.763 227.842 269.23 219.308ZM198.403 294.295C182.51 296.108 165.657 306.242 155.737 318.508C151.363 323.948 142.83 334.828 152.323 339.842C161.817 344.855 166.083 330.135 171.63 324.482C190.617 305.175 224.43 305.068 243.523 324.482C248.75 329.815 253.017 343.255 261.55 340.588C272.537 337.068 265.283 325.762 260.91 320.108C245.977 300.588 222.83 291.522 198.403 294.295Z" fill="white"/>
<path d="M401.708 144C408.534 142.506 409.494 130.026 401.494 128.213L334.828 128C291.201 90.9862 241.601 76.2662 184.641 81.5995C183.788 81.5995 181.654 82.7729 182.614 80.5329C184.534 76.2662 208.854 59.3062 214.188 56.2129C343.361 -19.4138 500.268 90.0262 476.694 237.226C469.974 279.146 448.534 313.066 418.134 341.546C411.734 347.52 408.108 344.746 411.948 354.666C417.601 369.28 429.441 382.826 439.041 394.986C413.121 401.599 387.414 396.159 364.161 383.999C363.414 383.039 374.188 366.72 375.681 364.053C388.054 340.8 396.374 314.56 398.188 288.106C409.921 288.106 410.348 273.6 399.041 271.466C399.254 261.12 398.188 250.666 396.054 240.64C396.054 239.786 409.388 241.493 406.828 229.866C405.014 221.44 394.348 225.6 392.534 223.146L382.081 192.106H401.494C406.828 192.106 411.201 177.493 399.468 176.106C394.241 175.466 375.894 177.386 373.014 175.573L351.041 144.106H401.494L401.708 144Z" fill="white"/>
</g>
<defs>
<clipPath id="clip0_1905_265">
<rect width="512" height="512" fill="white"/>
</clipPath>
</defs>
</svg>
