<svg width="384" height="384" viewBox="0 0 384 384" fill="none" xmlns="http://www.w3.org/2000/svg">
<g clip-path="url(#clip0_1882_265)">
<path d="M384 189.006V196.506C366.38 230.286 340.42 259.506 308.33 280.066C257.7 312.516 194.94 322.366 136.66 306.696C133 305.716 129.31 304.606 125.74 303.376C125.77 301.436 147.98 280.826 150.99 277.616C187.47 285.356 225.25 282.826 259.92 269.066C296.86 254.416 330.07 226.576 349.41 191.746C336.09 168.206 316.69 148.876 294.93 133.126C298.97 130.426 314.31 111.806 317.15 111.086C318.9 110.636 330.2 120.046 332.35 121.866C353.6 139.916 371.94 163.916 383.99 189.006H384Z" fill="white"/>
<path d="M79.3413 281.262C53.4713 265.902 30.8113 243.802 14.0513 218.792C9.4513 211.932 -0.018705 198.142 0.751295 190.122C1.25129 184.892 8.8413 173.192 11.9613 168.362C65.4813 85.5024 165.521 51.5624 259.561 80.8024C262.661 81.7624 273.021 86.4724 275.061 86.2624C277.211 86.0424 281.131 80.1824 282.901 78.3624C289.151 71.9524 310.351 48.8824 316.581 46.0924C333.271 38.6024 347.151 58.7124 334.971 72.0124L72.6213 334.882C59.5213 346.842 40.0113 333.812 46.5713 317.032C50.4613 307.062 71.9813 292.792 78.6213 283.142C79.0513 282.512 79.6413 282.352 79.3513 281.262H79.3413ZM249.261 111.012C177.751 87.3824 97.0313 111.392 50.1713 169.902C47.5313 173.202 36.1013 188.302 35.4913 191.252C35.3613 191.892 35.3613 192.122 35.4913 192.772C36.0613 195.532 46.9513 210.222 49.4213 213.372C63.8513 231.692 82.9313 247.812 103.561 258.642L142.861 219.222C143.411 217.202 140.211 211.972 139.441 209.422C126.061 165.092 165.521 125.742 209.751 138.972C211.761 139.572 217.501 142.742 218.791 142.412L249.261 111.022V111.012ZM193.121 168.012C179.471 167.442 167.871 178.982 168.431 192.752L193.121 168.012Z" fill="white"/>
<path d="M183.771 247.5C183.571 247.47 181.801 246.59 181.901 246.38L247.011 181.5C252.191 208.59 236.431 236.16 210.311 244.84C208.651 245.39 201.391 247.5 200.241 247.5C195.441 247.5 188.181 248.15 183.771 247.5Z" fill="white"/>
</g>
<defs>
<clipPath id="clip0_1882_265">
<rect width="384" height="384" fill="white"/>
</clipPath>
</defs>
</svg>
