<svg width="512" height="512" viewBox="0 0 512 512" fill="none" xmlns="http://www.w3.org/2000/svg">
<path d="M242.317 24.2895C425.464 13.1961 549.09 211.396 457.277 371.663C370.144 523.743 151.544 526.943 59.4636 377.903C-32.6564 228.809 68.7436 34.7961 242.317 24.2895ZM147.49 143.276C125.997 145.703 110.93 162.276 108.81 183.516C112.09 230.276 104.317 283.343 108.917 329.383C111.144 351.649 128.184 367.316 150.184 369.036C184.21 371.716 221.65 366.943 256.037 369.036C266.824 368.503 267.784 354.236 257.037 352.996C222.877 350.556 183.944 356.383 150.344 352.889C135.33 351.329 125.73 340.396 124.73 325.543C127.89 280.503 120.624 229.903 124.784 185.529C126.25 169.889 137.384 159.263 153.17 158.969C220.664 162.583 292.917 154.316 359.864 158.969C374.93 160.023 386.13 168.183 387.984 183.796C390.65 206.316 386.397 232.409 388.464 255.316C394.77 263.596 403.264 261.276 404.264 250.556C405.677 235.369 405.957 188.809 402.57 175.183C397.944 156.609 381.757 144.316 362.85 142.983L147.517 143.289L147.49 143.276ZM166.397 195.196C160.37 196.529 158.637 204.943 163.184 208.996L252.784 265.209C255.104 266.383 257.89 266.383 260.224 265.209L348.264 210.436C356.824 203.369 349.784 192.343 339.61 196.769L257.024 247.956C227.904 231.663 200.237 212.769 171.624 195.556C169.944 194.676 168.197 194.809 166.41 195.196H166.397ZM370.997 261.196C369.517 261.529 368.33 262.476 367.264 263.476L282.997 348.036C280.757 356.503 269.464 379.809 271.677 387.289C272.837 391.183 278.13 392.289 281.69 391.769C286.237 391.116 312.717 381.876 316.317 379.423L399.65 295.916C402.237 292.063 403.37 289.289 400.664 285.023C399.25 282.796 380.424 263.916 378.21 262.529C375.757 260.983 373.904 260.529 370.997 261.183V261.196Z" fill="white"/>
<path d="M292.439 371.001L297.412 356.495L350.786 302.948C353.292 300.495 361.759 310.255 360.852 312.001L306.906 366.028L292.426 371.015L292.439 371.001Z" fill="white"/>
<path d="M372.906 281.07L382.186 289.644L373.626 298.937L364.359 290.364L372.906 281.07Z" fill="white"/>
</svg>
