<svg width="393" height="393" viewBox="0 0 393 393" fill="none" xmlns="http://www.w3.org/2000/svg">
<path d="M0 199.53V191.12C39.37 135.27 101.98 87.8404 171.72 80.3704C255.77 71.3704 337.19 115.64 385.6 182.79C393.56 193.84 393.56 197.58 385.6 208.62C373.93 224.81 356.23 242.83 340.97 255.73C232.32 347.53 99.17 322.82 12.26 216.71C7.82 211.29 3.23 205.77 0.01 199.53H0ZM190.96 113.37C124.55 117.64 89.66 194.75 131.51 247.29C167.53 292.5 238.26 286.62 266.93 236.74C299.47 180.14 255.74 109.21 190.96 113.37Z" fill="white"/>
<path d="M190.96 151.587C251.39 145.167 256.67 237.057 198.37 240.027C140.95 242.957 135.05 157.527 190.96 151.587Z" fill="white"/>
</svg>
